<svg xmlns="http://www.w3.org/2000/svg" width="39.299" height="34.893" viewBox="0 0 39.299 34.893">
  <g id="cheeseburger" transform="translate(0)">
    <path id="Path_31" data-name="Path 31" d="M21.652,381.016v1.567a4.086,4.086,0,0,0,4.081,4.081H53.547a4.085,4.085,0,0,0,4.081-4.081v-1.567Zm0,0" transform="translate(-19.991 -351.77)" fill="#ff0e14"/>
    <path id="Path_32" data-name="Path 32" d="M37.73,200.354a1.572,1.572,0,0,0,0-3.143H1.569a1.572,1.572,0,0,0,0,3.143H20.42l.045,0,.024,0a1.374,1.374,0,0,1,.835.335l5.427,3.2,5.427-3.2a1.377,1.377,0,0,1,.836-.335l.024,0,.046,0H37.73Zm0,0" transform="translate(0 -182.073)" fill="#ff0e14"/>
    <path id="Path_33" data-name="Path 33" d="M44.546,0H36.421A13.944,13.944,0,0,0,22.566,12.541H58.4A13.944,13.944,0,0,0,44.546,0ZM32.354,7.142a1.3,1.3,0,1,1,1.3-1.3A1.321,1.321,0,0,1,32.354,7.142Zm2.71,2.671a1.3,1.3,0,1,1,1.3-1.3A1.321,1.321,0,0,1,35.064,9.813Zm2.71-2.671a1.3,1.3,0,1,1,1.3-1.3A1.321,1.321,0,0,1,37.774,7.142Zm2.71,2.671a1.3,1.3,0,1,1,1.3-1.3A1.321,1.321,0,0,1,40.484,9.813Zm2.71-2.671a1.3,1.3,0,1,1,1.3-1.3A1.321,1.321,0,0,1,43.193,7.142ZM45.9,9.813a1.3,1.3,0,1,1,1.3-1.3A1.321,1.321,0,0,1,45.9,9.813Zm2.71-2.671a1.3,1.3,0,1,1,1.3-1.3A1.321,1.321,0,0,1,48.614,7.142Zm0,0" transform="translate(-20.834)" fill="#ff0e14"/>
    <path id="Path_34" data-name="Path 34" d="M41.207,277.036a2.792,2.792,0,0,0-2.788-2.79H35.249l-5.712,3.373a1.386,1.386,0,0,1-1.408,0l-5.712-3.373H5.042a2.79,2.79,0,0,0,0,5.58H38.42A2.792,2.792,0,0,0,41.207,277.036Zm0,0" transform="translate(-2.081 -253.196)" fill="#ff0e14"/>
  </g>
</svg>
