<svg xmlns="http://www.w3.org/2000/svg" width="114.185" height="152.442" viewBox="0 0 114.185 152.442">
  <g id="Group_324" data-name="Group 324" transform="translate(-0.002 -0.003)">
    <path id="Path_27" data-name="Path 27" d="M86.533,87.174c.987.085,1.977.138,2.958.267a16,16,0,0,1,6.469,2.219,9.5,9.5,0,0,1,4.6,6.456,8.6,8.6,0,0,1-.415,4.976,6.48,6.48,0,0,1-5.5,4.155,11,11,0,0,1-5.306-.836A33.34,33.34,0,0,1,84,101.737c-.49-.289-.971-.594-1.468-.874a4.954,4.954,0,0,0-1.826-.654,1.785,1.785,0,0,0-1.864.858,23.582,23.582,0,0,1-8.569,7.635,22.67,22.67,0,0,1-11.721,2.835A24.085,24.085,0,0,1,40.267,102.5c-.038-.047-.079-.094-.113-.145a3.05,3.05,0,0,0-3.385-1.232,9.7,9.7,0,0,0-2.738,1.009c-.648.339-1.282.7-1.921,1.066a13.96,13.96,0,0,1-6.657,1.965,7.292,7.292,0,0,1-4.97-1.515,6.771,6.771,0,0,1-2.427-5.972,9.055,9.055,0,0,1,2.577-5.727,14.609,14.609,0,0,1,7.3-4.419,7.7,7.7,0,0,1,9.326,5.834c.016.079.041.154.088.33.207-.135.39-.239.56-.361a52.222,52.222,0,0,1,5.133-3.4,18.869,18.869,0,0,1,6-2.307,12.159,12.159,0,0,1,6.827.666A8.363,8.363,0,0,1,59.2,90.7a2.768,2.768,0,0,1,.22.361l.167-.028a1.439,1.439,0,0,1,.116-.217,8.709,8.709,0,0,1,5.931-3.269,13.846,13.846,0,0,1,7.77,1.3,44.521,44.521,0,0,1,5.3,2.886c.2.126.412.248.695.418a49.476,49.476,0,0,0,2.533-10.939,48.624,48.624,0,0,0,.1-11.212c-.176-.019-.311-.047-.449-.05a62.5,62.5,0,0,1-10.338-1.279c-3.332-.641-6.657-1.32-10-1.939a49.2,49.2,0,0,0-11.841-.783,47.83,47.83,0,0,0-17.084,4.168c-.236.107-.471.207-.8.349.082-4.294.16-8.49.242-12.743-.622.06-1.163.11-1.707.16A24.446,24.446,0,0,1,19.16,56.4,29.148,29.148,0,0,1,1.982,40.3,23.926,23.926,0,0,1,.049,31.969a29.576,29.576,0,0,1,5.086-18.24A29.662,29.662,0,0,1,18.207,2.545,29.966,29.966,0,0,1,26.722.279,41.481,41.481,0,0,1,45.856,2.646a66.023,66.023,0,0,1,14.575,7.578c3.788,2.543,7.336,5.4,10.869,8.276a79.3,79.3,0,0,0,8.2,6.032,30.318,30.318,0,0,0,7.55,3.517,7.873,7.873,0,0,0,3.791.314,4.357,4.357,0,0,0,2.728-1.707,3.013,3.013,0,0,0,.189-3.542,5.5,5.5,0,0,0-1.675-1.751,11.634,11.634,0,0,0-5.023-1.927,12.978,12.978,0,0,0-7.333.993c-.506.226-.808.085-.984-.434a1.112,1.112,0,0,1,.343-1.273,3.321,3.321,0,0,1,1.037-.619A49.577,49.577,0,0,1,90.77,15.524a25.746,25.746,0,0,1,7.173.116,19.025,19.025,0,0,1,12.212,7.3,18.188,18.188,0,0,1,3.97,10,19.6,19.6,0,0,1-14.431,20.51A28.862,28.862,0,0,1,90.4,54.516a43.726,43.726,0,0,1-13.475-2.9c-3.48-1.27-6.852-2.788-10.225-4.306-3.5-1.578-7-3.168-10.621-4.467A50.279,50.279,0,0,0,45.818,40.23a29.38,29.38,0,0,0-11.68.563c-.154.041-.3.1-.519.167.075.443.141.88.22,1.311q.938,5.191,1.883,10.379.033.179.075.358c.223.984.707,1.3,1.682,1.059,1.282-.317,2.559-.657,3.838-.993,1.04-.273,2.081-.56,3.121-.836.135-.035.273-.057.424-.088a1.164,1.164,0,0,1-.028,1.223A2.358,2.358,0,0,1,43.25,54.7a11.965,11.965,0,0,1-2.1.355c-3.895.233-5.768,4.551-4.74,7.44a6.19,6.19,0,0,0,.324.723,2.857,2.857,0,0,0,.267.361c.223-.079.434-.148.641-.223a28.462,28.462,0,0,1,8.088-1.694,44.948,44.948,0,0,1,11.165.814c4.907.89,9.684,2.307,14.478,3.649,1.663.465,3.329.927,5,1.342a8.084,8.084,0,0,0,3.75.072,4.566,4.566,0,0,0,2.266-1.251,3.38,3.38,0,0,0,1.078-2.681,3.7,3.7,0,0,1,4.262-3.656,2.905,2.905,0,0,1,2.125,1.833,3.861,3.861,0,0,1,.044,2.86,2.732,2.732,0,0,1-1.194,1.5,6.845,6.845,0,0,0-3.231,4.6,19.885,19.885,0,0,0-.5,4.781c0,1.342.022,2.684,0,4.027A41.415,41.415,0,0,1,82.453,93.04c-.229.629-.233.635.267,1.081a23.339,23.339,0,0,0,9.266,5.111,7.553,7.553,0,0,0,1.98.283,2.645,2.645,0,0,0,2.606-1.848,4.237,4.237,0,0,0-.456-3.907,7.024,7.024,0,0,0-2.081-2.037c-.846-.56-1.716-1.091-2.6-1.594-1.484-.849-2.983-1.666-4.473-2.5-.157-.088-.308-.182-.462-.277C86.511,87.284,86.523,87.231,86.533,87.174Zm3.794-69.68c.069.094.085.141.116.154.167.079.333.148.5.22a16.292,16.292,0,0,1,3.662,2.049A7.853,7.853,0,0,1,96.626,22.1a5.065,5.065,0,0,1,.729,3.564,6.37,6.37,0,0,1-3.143,4.366,8.675,8.675,0,0,1-4.545,1.2,15.791,15.791,0,0,1-4.859-.773,35.851,35.851,0,0,1-7.83-3.643C73.545,24.777,70.288,22.48,67,20.223c-3.74-2.565-7.478-5.133-11.416-7.393A57.372,57.372,0,0,0,43.357,7.4a35.307,35.307,0,0,0-15-1.4A23.511,23.511,0,0,0,18.88,9.338,25.4,25.4,0,0,0,8.209,23.011,23.135,23.135,0,0,0,7.879,37.7,25.74,25.74,0,0,0,30.956,55.3c.236.009.471,0,.751,0,.022-.317.057-.556.053-.8C31.733,53,31.736,51.5,31.651,50a39.439,39.439,0,0,0-.984-6.749A7.145,7.145,0,0,0,29.2,40.2a2.572,2.572,0,0,0-2.527-1.009,3.212,3.212,0,0,1-2.483-.6,4.188,4.188,0,0,1-1.71-2.515,3.091,3.091,0,0,1,1.3-3.357,3.936,3.936,0,0,1,5.548,1.163,6.281,6.281,0,0,0,2.251,2.279,10.347,10.347,0,0,0,3.376,1.361,22.121,22.121,0,0,0,6.2.192c1.54-.1,3.084-.245,4.627-.255a43,43,0,0,1,9.075.99A86.448,86.448,0,0,1,65.51,41.506c4.049,1.411,8.078,2.886,12.142,4.25A54.856,54.856,0,0,0,90.993,48.8a22.8,22.8,0,0,0,7.569-.56,13.974,13.974,0,0,0,9.37-7.569,15.977,15.977,0,0,0,1.657-6.324A14.7,14.7,0,0,0,106.282,23.9,17.673,17.673,0,0,0,95.9,17.73,15.785,15.785,0,0,0,90.327,17.494ZM58.781,93.577c-1.436.138-2.876.233-4.306.421a33.3,33.3,0,0,0-11.753,3.841,3.326,3.326,0,0,0-.773.582.968.968,0,0,0,.025,1.616,26.062,26.062,0,0,0,3.712,3.065,23.909,23.909,0,0,0,12.149,4.306,20.655,20.655,0,0,0,12.491-3.2,18.138,18.138,0,0,0,4.8-4.369,2.651,2.651,0,0,0,.629-1.493.855.855,0,0,0-.506-.893c-.346-.17-.688-.349-1.037-.516A35.64,35.64,0,0,0,58.781,93.577Zm-36.39,2.867c0,.082,0,.163,0,.245a2.918,2.918,0,0,0,3.618,2.87,5.967,5.967,0,0,0,1.408-.374q2.867-1.273,5.7-2.625a3.623,3.623,0,0,0,1-.783,1.581,1.581,0,0,0-.126-2.235,1.631,1.631,0,0,1-.588-1.1c-.06-.277-.091-.563-.141-.839a2.447,2.447,0,0,0-2.188-2.128,3.96,3.96,0,0,0-2.367.383,18.734,18.734,0,0,0-4.1,2.505,6.978,6.978,0,0,0-1.537,1.719A4.416,4.416,0,0,0,22.391,96.444Zm6.481-58.958a4.535,4.535,0,0,0-1.22-2.068,4.208,4.208,0,0,0-1.7-1.028.743.743,0,0,0-.981.861,1.912,1.912,0,0,0,.613,1.229A3.9,3.9,0,0,0,27.5,37.486,2.348,2.348,0,0,0,28.872,37.486Zm58.71,24.829A1.2,1.2,0,0,0,87.3,62.3a2.541,2.541,0,0,0-2.059,2.062,10.071,10.071,0,0,0,0,1.509,1.506,1.506,0,0,0,.116.38A3.812,3.812,0,0,0,87.582,62.314Z" transform="translate(0 0)" fill="#ff0e14"/>
    <path id="Path_28" data-name="Path 28" d="M39.882,388.8a1.72,1.72,0,0,0,.176-.16,4.734,4.734,0,0,1,4.652-1.666,6.02,6.02,0,0,1,4.592,3.542,6.467,6.467,0,0,1,.324,5.161A8.657,8.657,0,0,1,42.7,401.84a9.943,9.943,0,0,1-5.513-.613,12.045,12.045,0,0,1-7.984-9.754c-.94-5.516.773-10.282,4.5-14.358a24.578,24.578,0,0,1,8.836-5.953,41.7,41.7,0,0,1,9.2-2.562,71.51,71.51,0,0,1,15.93-.761c3.084.17,6.173.352,9.244.679,3.231.346,6.453.817,9.662,1.339,6.579,1.072,13.095,2.486,19.589,3.979,2.911.67,5.815,1.37,8.723,2.053.148.035.3.041.553.072-.119-.157-.179-.233-.236-.308a6.857,6.857,0,0,1,2.163-10.6,8.87,8.87,0,0,1,9.433.572,10.912,10.912,0,0,1,4.511,6.387,11.722,11.722,0,0,1,.28,5.906,1.01,1.01,0,0,1-.767.849.945.945,0,0,1-1.191-.946c.013-.443.138-.883.163-1.33a10.135,10.135,0,0,0-3.184-8.49,7.055,7.055,0,0,0-7.421-1.6,4.968,4.968,0,0,0-3.533,3.86,4.5,4.5,0,0,0,3.536,5.457,3.836,3.836,0,0,0,3.86-1.546c.226-.286.38-.626.585-.927a1.079,1.079,0,0,1,1.939-.047,3.412,3.412,0,0,1,.515,1.22,3.937,3.937,0,0,1-3.1,4.771,6.118,6.118,0,0,1-2.722-.057q-3.781-.825-7.547-1.716c-7.714-1.823-15.443-3.558-23.232-5.023-3.615-.679-7.242-1.308-10.9-1.694-3.134-.333-6.277-.563-9.42-.789a78.477,78.477,0,0,0-8.292-.185,60.263,60.263,0,0,0-11.13,1.292,32.923,32.923,0,0,0-9.992,3.775,18.487,18.487,0,0,0-6.962,6.937,13.8,13.8,0,0,0-1.216,11.08,10.148,10.148,0,0,0,10.1,7.148,6.378,6.378,0,0,0,5.032-2.832,6.255,6.255,0,0,0,1.267-3.627,4.6,4.6,0,0,0-1.9-3.841,3.5,3.5,0,0,0-3.348-.559,1.98,1.98,0,0,0-1.458,1.795c.141-.016.277-.028.409-.047a2.817,2.817,0,0,1,2.895,1.15,2.769,2.769,0,0,1,.182,3.109A2.942,2.942,0,0,1,42,396.685a3.486,3.486,0,0,1-2-.654,5.621,5.621,0,0,1-2.59-5.661,11.144,11.144,0,0,1,.371-1.663c.182-.644.55-.946,1.047-.934.475.013.77.292.984.924C39.81,388.726,39.844,388.751,39.882,388.8Zm-.207,3.665-.11.085a9.472,9.472,0,0,0,.55.912,3,3,0,0,0,1.7,1.2,1.093,1.093,0,0,0,1.245-.632.9.9,0,0,0-.17-.968.872.872,0,0,0-.946-.226A2.04,2.04,0,0,1,39.674,392.467ZM123.751,376.4c-.324.22-.648.44-.971.663A1.044,1.044,0,0,0,123.751,376.4Z" transform="translate(-19.851 -249.553)" fill="#ff0e14"/>
  </g>
</svg>
